<svg xmlns="http://www.w3.org/2000/svg" viewBox="0 0 24 24"><path fill="#ffffff" fill-rule="evenodd" d="M12 1.9L8 2c-1 0-1.7.2-2.3.4-.6.3-1.2.6-1.7 1.1s-.9 1.1-1.1 1.7a7 7 0 00-.4 2.4l-.1 4a35.8 35.8 0 00.5 6.3 5.1 5.1 0 002.8 2.7c.6.3 1.3.4 2.3.5l4 .1 4-.1c1 0 1.7-.2 2.3-.4.6-.2 1.2-.6 1.7-1.1.5-.5.9-1.1 1.1-1.7.2-.6.4-1.3.4-2.3l.1-4-.1-4c0-1-.2-1.7-.4-2.3-.2-.6-.6-1.2-1.1-1.7-.5-.5-1.1-.9-1.7-1.1C17.7 2.2 17 2 16 2l-4-.1zm0 1.7l3.9.1c.9 0 1.4.2 1.8.3l1.1.7.7 1.1c.1.3.3.8.3 1.8l.1 3.9-.1 3.9c0 .9-.2 1.4-.3 1.8l-.7 1.1-1.1.7c-.3.1-.9.3-1.8.3l-3.9.1-3.9-.1c-.9 0-1.5-.2-1.8-.3a3 3 0 01-1.1-.7c-.3-.3-.6-.7-.7-1.1-.1-.3-.3-.9-.3-1.8V7.6c0-.9.2-1.5.3-1.8A3 3 0 016.3 4c.3-.1.8-.3 1.8-.3l3.9-.1zm-4.9 7.9a5 5 0 119.8 0 5 5 0 01-9.8 0zm4.9 3.2a3.2 3.2 0 01-3.2-3.2c0-1.8 1.4-3.2 3.2-3.2s3.2 1.4 3.2 3.2c0 1.8-1.4 3.2-3.2 3.2zm5.1-7.2c.6 0 1.2-.5 1.2-1.2 0-.6-.5-1.2-1.2-1.2-.6 0-1.2.5-1.2 1.2s.6 1.2 1.2 1.2z" clip-rule="evenodd"/></svg>