<svg xmlns="http://www.w3.org/2000/svg" viewBox="0 0 1277 230"><path fill="#ffffff" d="M1016.1 61h52.7v165.2h-40V71.9c0-2.7-1.2-5.2-3.6-7.4-2.3-2.4-5.3-3.1-9.1-3.5zm-535-23.3L360.2 189l-2.5 2.5h121.8v34.8H306.9v-31.1L433.4 38H312.8s.2-20-19.5-34.5h187.9v34.2zm19 23.3h52.7v165.2h-40V71.9c0-2.7-1.2-5.2-3.6-7.4-2.3-2.4-5.3-3.1-9.1-3.5zm271.8-4c7.2 0 13.9 1.1 20 3.4s11.6 5.8 16.6 10.5c5 4.8 8.8 11.1 11.6 19.1 2.8 8 4.2 17.2 4.2 27.7v108.5h-39.1V122.4c0-9.3-2.1-17.1-6.4-23.2-4.2-6.2-11.1-9.3-20.6-9.3-20.7 0-31 13.8-31 41.5v94.9h-39.4V123.9c0-10.5-1.9-18.9-5.7-25-3.8-6.1-10.7-9.1-20.6-9.1-20.9 0-31.3 14.8-31.3 44.3v92.1h-39.7V103.5c0-12-.1-22.4-.3-31.3 0-1.9-.5-3.7-1.6-5.4-1-1.8-2.5-3.1-4.5-4.2-2-1-3.5-1.4-6.7-1.6h52.7v21.4c10.5-17 26-25.4 46.7-25.4 11.2 0 20.4 2.5 27.7 7.4 7.3 5 12.7 11.4 16 19.2C732.2 65.9 749.4 57 771.9 57zM975.6 3.5h42.5l-75.3 222.7h-49.3l-70-205.7c-4.1-11.3-7.3-12.6-19.5-17h58.3l31.9 107.1c12.2 37.2 20.4 65 24.5 83.5h.6c3.5-14.7 12.1-42.2 25.7-82.5L975.6 3.5zM1247 138.1c0 6.1-.2 10.6-.6 13.7h-111.6c0 13 3.3 23.8 9.8 32.5 6.5 8.7 15.7 13.1 27.4 13.1 9.7 0 16.8-1.7 21.4-5.2 4.5-3.4 8.3-8.4 11.2-14.9h40c-1.7 5.9-4.1 11.4-7.3 16.7-3.2 5.3-7.5 10.7-13 16.3-5.5 5.6-12.8 10-22 13.2-9.2 3.2-19.7 4.9-31.5 4.9-12.8 0-24.2-2.3-34.3-6.8-10-4.6-18-10.8-24-18.7-6-7.9-10.5-16.7-13.5-26.3-3-9.6-4.5-19.9-4.5-30.8 0-25.9 6.7-46.9 20.1-62.9 13.4-16 32.8-24 58-24 13.2 0 24.8 2.3 34.9 6.8 10 4.6 17.8 10.7 23.2 18.5 5.5 7.8 9.6 16.2 12.2 25.2 2.8 9 4.1 18.6 4.1 28.7zm-111.3-11.3h71c-.2-11.7-3.1-21.2-8.7-28.4-5.6-7.2-14.2-10.8-25.7-10.8-21.9.1-34.1 13.1-36.6 39.2zM9 115.3c0 62.4 50.3 113 112.3 113 30.8 0 59.3-12.4 79.5-32.6H48.5l73.3-80.5H9zm225.7-.2c0-62.4-50.3-113-112.3-113-30.8 0-59.2 12.4-79.5 32.6h152.4L122 115.2l112.7-.1zM1029.5 3.5v40.8c22.6 0 40.8-18.3 40.8-40.8h-40.8zm-516.9 0v40.8c22.6 0 40.8-18.3 40.8-40.8h-40.8z"/></svg>